name analog
datacolumns 19
datarows 70
range 0.1595 0.194
endheader
time	ground_force_vx	ground_force_vy	ground_force_vz	ground_force_px	ground_force_py	ground_force_pz	l_ground_force_vx	l_ground_force_vy	l_ground_force_vz	l_ground_force_px	l_ground_force_py	l_ground_force_pz	ground_torque_x	ground_torque_y	ground_torque_z	l_ground_torque_x	l_ground_torque_y	l_ground_torque_z
0.1595	-0.0	-0.0	-0.0	-0.0	-0.0	-0.0	-4.613051414489746	1.4394822120666504	-764.1185302734375	-0.0	-0.0	-0.0	-0.0	-0.0	-0.0	233418.46875	13330.23828125	-1937.034423828125
0.16	-0.0	-0.0	-0.0	-0.0	-0.0	-0.0	-4.240247249603272	1.9608690738677976	-763.3157958984375	-0.0	-0.0	-0.0	-0.0	-0.0	-0.0	233012.875	13280.7490234375	-1829.790283203125
0.1605	-0.0	-0.0	-0.0	-0.0	-0.0	-0.0	-4.763798713684082	1.5147244930267334	-762.68603515625	-0.0	-0.0	-0.0	-0.0	-0.0	-0.0	232627.640625	13330.3359375	-1871.953125
0.161	-0.0	-0.0	-0.0	-0.0	-0.0	-0.0	-4.719588279724121	1.4309868812561035	-760.5216064453125	-0.0	-0.0	-0.0	-0.0	-0.0	-0.0	232201.828125	13148.662109375	-1874.9708251953125
0.1615	-0.0	-0.0	-0.0	-0.0	-0.0	-0.0	-4.422560214996338	1.1881951093673706	-759.8749389648438	-0.0	-0.0	-0.0	-0.0	-0.0	-0.0	231776.125	12946.8408203125	-1797.5179443359375
0.162	-0.0	-0.0	-0.0	-0.0	-0.0	-0.0	-3.833200216293335	0.7425699234008789	-761.219482421875	-0.0	-0.0	-0.0	-0.0	-0.0	-0.0	231732.328125	12675.1552734375	-1503.6875
0.1625	-0.0	-0.0	-0.0	-0.0	-0.0	-0.0	-2.9045186042785645	0.4988205432891845	-761.7000122070312	-0.0	-0.0	-0.0	-0.0	-0.0	-0.0	231720.0	12249.04296875	-1206.0048828125
0.163	-0.0	-0.0	-0.0	-0.0	-0.0	-0.0	-1.8535292148590088	0.6104437112808228	-761.3281860351562	-0.0	-0.0	-0.0	-0.0	-0.0	-0.0	231508.828125	11691.1015625	-864.3560791015625
0.1635	-0.0	-0.0	-0.0	-0.0	-0.0	-0.0	-0.8572822213172913	0.5611225366592407	-760.8587036132812	-0.0	-0.0	-0.0	-0.0	-0.0	-0.0	231127.71875	11102.77734375	-540.7303466796875
0.164	-0.0	-0.0	-0.0	-0.0	-0.0	-0.0	0.4804857671260834	0.3337008357048034	-760.2484741210938	-0.0	-0.0	-0.0	-0.0	-0.0	-0.0	230551.6875	10527.4736328125	-343.99908447265625
0.1645	-0.0	-0.0	-0.0	-0.0	-0.0	-0.0	1.432974338531494	0.0372870899736881	-757.3073120117188	-0.0	-0.0	-0.0	-0.0	-0.0	-0.0	229966.859375	9951.224609375	2.2797770500183105
0.165	-0.0	-0.0	-0.0	-0.0	-0.0	-0.0	2.04032564163208	0.0913488194346427	-756.6849365234375	-0.0	-0.0	-0.0	-0.0	-0.0	-0.0	229185.75	9573.2392578125	242.65234375
0.1655	-0.0	-0.0	-0.0	-0.0	-0.0	-0.0	2.911306381225586	-0.2430505901575088	-754.0699462890625	-0.0	-0.0	-0.0	-0.0	-0.0	-0.0	228392.59375	8892.6015625	441.5294799804688
0.166	-0.0	-0.0	-0.0	-0.0	-0.0	-0.0	3.52789568901062	-0.9410771727561952	-751.5892333984375	-0.0	-0.0	-0.0	-0.0	-0.0	-0.0	227952.21875	8427.2158203125	851.128662109375
0.1665	-0.0	-0.0	-0.0	-0.0	-0.0	-0.0	4.793674468994141	-0.7929542660713196	-751.0715942382812	-0.0	-0.0	-0.0	-0.0	-0.0	-0.0	227133.828125	7757.095703125	1034.6961669921875
0.167	-0.0	-0.0	-0.0	-0.0	-0.0	-0.0	5.633134841918945	-1.129345417022705	-751.0335693359375	-0.0	-0.0	-0.0	-0.0	-0.0	-0.0	226673.84375	7205.931640625	1334.339111328125
0.1675	-0.0	-0.0	-0.0	-0.0	-0.0	-0.0	6.336328983306885	-1.573025107383728	-748.6636962890625	-0.0	-0.0	-0.0	-0.0	-0.0	-0.0	226159.328125	6590.40087890625	1445.347412109375
0.168	-0.0	-0.0	-0.0	-0.0	-0.0	-0.0	6.581362247467041	-1.959767818450928	-747.5335693359375	-0.0	-0.0	-0.0	-0.0	-0.0	-0.0	225655.046875	6498.35546875	1435.297607421875
0.1685	-0.0	-0.0	-0.0	-0.0	-0.0	-0.0	6.958366394042969	-2.302320957183838	-747.9585571289062	-0.0	-0.0	-0.0	-0.0	-0.0	-0.0	225296.359375	6004.025390625	1620.66650390625
0.169	-0.0	-0.0	-0.0	-0.0	-0.0	-0.0	7.246617317199707	-3.0029025077819824	-747.369384765625	-0.0	-0.0	-0.0	-0.0	-0.0	-0.0	225129.125	5867.79296875	1609.91259765625
0.1695	-0.0	-0.0	-0.0	-0.0	-0.0	-0.0	7.734466552734375	-3.0622799396514893	-747.2879638671875	-0.0	-0.0	-0.0	-0.0	-0.0	-0.0	225010.484375	5737.51171875	1566.2513427734375
0.17	-0.0	-0.0	-0.0	-0.0	-0.0	-0.0	8.266671180725098	-3.124250888824463	-746.5513916015625	-0.0	-0.0	-0.0	-0.0	-0.0	-0.0	225030.0	5496.7607421875	1623.56494140625
0.1705	-0.0	-0.0	-0.0	-0.0	-0.0	-0.0	8.598246574401855	-3.058405876159668	-747.1011962890625	-0.0	-0.0	-0.0	-0.0	-0.0	-0.0	225075.5	5301.3916015625	1784.844970703125
0.171	-0.0	-0.0	-0.0	-0.0	-0.0	-0.0	8.696935653686523	-2.8180575370788574	-746.551025390625	-0.0	-0.0	-0.0	-0.0	-0.0	-0.0	225132.8125	5700.3173828125	1750.1044921875
0.1715	-0.0	-0.0	-0.0	-0.0	-0.0	-0.0	8.620588302612305	-2.2046918869018555	-745.6712036132812	-0.0	-0.0	-0.0	-0.0	-0.0	-0.0	225029.828125	6160.67822265625	1577.7711181640625
0.17200000000000001	-0.0	-0.0	-0.0	-0.0	-0.0	-0.0	7.750498294830322	-2.126750469207764	-745.8521118164062	-0.0	-0.0	-0.0	-0.0	-0.0	-0.0	225076.8125	6398.48388671875	1250.8616943359375
0.17250000000000001	-0.0	-0.0	-0.0	-0.0	-0.0	-0.0	6.828479766845703	-1.7554633617401123	-745.9002075195312	-0.0	-0.0	-0.0	-0.0	-0.0	-0.0	225421.6875	7028.0361328125	979.106201171875
0.17300000000000001	-0.0	-0.0	-0.0	-0.0	-0.0	-0.0	6.580796241760254	-1.4857896566390991	-746.6925048828125	-0.0	-0.0	-0.0	-0.0	-0.0	-0.0	225557.75	7375.62548828125	814.6394653320312
0.17350000000000002	-0.0	-0.0	-0.0	-0.0	-0.0	-0.0	6.604951858520508	-1.2766828536987305	-747.1052856445312	-0.0	-0.0	-0.0	-0.0	-0.0	-0.0	225763.984375	7698.318359375	767.5455322265625
0.17400000000000002	-0.0	-0.0	-0.0	-0.0	-0.0	-0.0	6.2497639656066895	-0.8269339203834534	-747.0253295898438	-0.0	-0.0	-0.0	-0.0	-0.0	-0.0	225323.34375	7854.47998046875	748.5982055664062
0.17450000000000002	-0.0	-0.0	-0.0	-0.0	-0.0	-0.0	6.262101173400879	-1.2046139240264893	-746.2156982421875	-0.0	-0.0	-0.0	-0.0	-0.0	-0.0	225361.90625	8112.98291015625	464.04241943359375
0.17500000000000002	-0.0	-0.0	-0.0	-0.0	-0.0	-0.0	5.975522994995117	-1.4776325225830078	-745.564697265625	-0.0	-0.0	-0.0	-0.0	-0.0	-0.0	225226.734375	8481.7744140625	330.1575622558594
0.17550000000000002	-0.0	-0.0	-0.0	-0.0	-0.0	-0.0	5.7622389793396	-1.497506618499756	-746.2490234375	-0.0	-0.0	-0.0	-0.0	-0.0	-0.0	225492.546875	8442.3837890625	251.1075134277344
0.176	-0.0	-0.0	-0.0	-0.0	-0.0	-0.0	6.00067138671875	-1.6370753049850464	-746.5485229492188	-0.0	-0.0	-0.0	-0.0	-0.0	-0.0	225607.90625	8422.4765625	227.3814392089844
0.1765	-0.0	-0.0	-0.0	-0.0	-0.0	-0.0	6.456064224243164	-1.356317162513733	-747.1771240234375	-0.0	-0.0	-0.0	-0.0	-0.0	-0.0	226039.640625	8342.4560546875	243.0655212402344
0.177	-0.0	-0.0	-0.0	-0.0	-0.0	-0.0	6.729151248931885	-1.4209606647491455	-747.575927734375	-0.0	-0.0	-0.0	-0.0	-0.0	-0.0	226227.59375	8220.080078125	327.3718566894531
0.1775	-0.0	-0.0	-0.0	-0.0	-0.0	-0.0	7.209057807922363	-1.5560563802719116	-747.8057250976562	-0.0	-0.0	-0.0	-0.0	-0.0	-0.0	226309.140625	8124.42236328125	454.9490356445313
0.178	-0.0	-0.0	-0.0	-0.0	-0.0	-0.0	7.331770896911621	-1.932473301887512	-747.698486328125	-0.0	-0.0	-0.0	-0.0	-0.0	-0.0	226265.703125	8130.26123046875	454.9046020507813
0.1785	-0.0	-0.0	-0.0	-0.0	-0.0	-0.0	7.438933372497559	-2.180555820465088	-749.32958984375	-0.0	-0.0	-0.0	-0.0	-0.0	-0.0	226600.921875	7839.46923828125	462.70263671875
0.179	-0.0	-0.0	-0.0	-0.0	-0.0	-0.0	7.71002197265625	-2.3825697898864746	-751.6707763671875	-0.0	-0.0	-0.0	-0.0	-0.0	-0.0	227568.765625	7883.72216796875	538.1522827148438
0.1795	-0.0	-0.0	-0.0	-0.0	-0.0	-0.0	7.7670698165893555	-1.5081937313079834	-754.273681640625	-0.0	-0.0	-0.0	-0.0	-0.0	-0.0	228724.875	7956.4453125	584.8914184570312
0.18	-0.0	-0.0	-0.0	-0.0	-0.0	-0.0	7.378348350524902	-0.7337510585784912	-758.068603515625	-0.0	-0.0	-0.0	-0.0	-0.0	-0.0	229957.578125	8064.486328125	434.61962890625
0.1805	-0.0	-0.0	-0.0	-0.0	-0.0	-0.0	6.537881851196289	-0.211576908826828	-761.623291015625	-0.0	-0.0	-0.0	-0.0	-0.0	-0.0	231007.765625	8266.3017578125	181.83468627929688
0.181	-0.0	-0.0	-0.0	-0.0	-0.0	-0.0	5.913023948669434	0.6637617349624634	-764.9668579101562	-0.0	-0.0	-0.0	-0.0	-0.0	-0.0	232058.859375	8531.75	26.41756629943848
0.1815	-0.0	-0.0	-0.0	-0.0	-0.0	-0.0	5.189628601074219	1.1288233995437622	-767.1734619140625	-0.0	-0.0	-0.0	-0.0	-0.0	-0.0	233251.703125	8868.640625	-225.0525360107422
0.182	-0.0	-0.0	-0.0	-0.0	-0.0	-0.0	4.64323091506958	1.443284034729004	-768.312255859375	-0.0	-0.0	-0.0	-0.0	-0.0	-0.0	234101.3125	9129.4892578125	-154.0714569091797
0.1825	-0.0	-0.0	-0.0	-0.0	-0.0	-0.0	4.579068183898926	1.8147494792938232	-770.8970947265625	-0.0	-0.0	-0.0	-0.0	-0.0	-0.0	234209.0	9279.125	-284.6792297363281
0.183	-0.0	-0.0	-0.0	-0.0	-0.0	-0.0	3.925654411315918	1.73731791973114	-771.4234619140625	-0.0	-0.0	-0.0	-0.0	-0.0	-0.0	234588.578125	9376.4072265625	-444.221923828125
0.1835	-0.0	-0.0	-0.0	-0.0	-0.0	-0.0	3.371509075164795	1.6157528162002563	-772.4255981445312	-0.0	-0.0	-0.0	-0.0	-0.0	-0.0	235068.3125	9356.251953125	-648.6315307617188
0.184	-0.0	-0.0	-0.0	-0.0	-0.0	-0.0	2.6316123008728027	1.7816452980041504	-772.614013671875	-0.0	-0.0	-0.0	-0.0	-0.0	-0.0	235075.921875	9639.576171875	-803.5724487304688
0.1845	-0.0	-0.0	-0.0	-0.0	-0.0	-0.0	2.3286824226379395	1.6044949293136597	-773.5160522460938	-0.0	-0.0	-0.0	-0.0	-0.0	-0.0	235512.671875	9787.8955078125	-776.6574096679688
0.185	-0.0	-0.0	-0.0	-0.0	-0.0	-0.0	2.1512129306793213	1.6781142950057983	-772.9926147460938	-0.0	-0.0	-0.0	-0.0	-0.0	-0.0	235637.578125	9899.1513671875	-976.9734497070312
0.1855	-0.0	-0.0	-0.0	-0.0	-0.0	-0.0	2.29569411277771	1.3652626276016235	-771.1159057617188	-0.0	-0.0	-0.0	-0.0	-0.0	-0.0	235543.671875	9758.701171875	-984.3743286132812
0.186	-0.0	-0.0	-0.0	-0.0	-0.0	-0.0	2.321120500564575	0.3669967651367187	-771.21826171875	-0.0	-0.0	-0.0	-0.0	-0.0	-0.0	235384.546875	9961.6259765625	-927.6322631835938
0.1865	-0.0	-0.0	-0.0	-0.0	-0.0	-0.0	2.410081386566162	-0.0039395689964294	-769.6903686523438	-0.0	-0.0	-0.0	-0.0	-0.0	-0.0	235320.640625	9871.40234375	-921.6328735351562
0.187	-0.0	-0.0	-0.0	-0.0	-0.0	-0.0	2.7499704360961914	-1.27987802028656	-768.3969116210938	-0.0	-0.0	-0.0	-0.0	-0.0	-0.0	235131.78125	9630.482421875	-979.9515991210938
0.1875	-0.0	-0.0	-0.0	-0.0	-0.0	-0.0	2.935188770294189	-1.8389816284179688	-767.5367431640625	-0.0	-0.0	-0.0	-0.0	-0.0	-0.0	235481.71875	9511.955078125	-974.7071533203124
0.188	-0.0	-0.0	-0.0	-0.0	-0.0	-0.0	3.133683919906616	-1.6350919008255005	-769.35107421875	-0.0	-0.0	-0.0	-0.0	-0.0	-0.0	236108.34375	9462.4521484375	-957.0684814453124
0.1885	-0.0	-0.0	-0.0	-0.0	-0.0	-0.0	3.3697926998138428	-0.6367689967155457	-769.6150512695312	-0.0	-0.0	-0.0	-0.0	-0.0	-0.0	237096.578125	9553.3623046875	-1139.4237060546875
0.189	-0.0	-0.0	-0.0	-0.0	-0.0	-0.0	3.667226076126098	0.3233567774295807	-771.9058837890625	-0.0	-0.0	-0.0	-0.0	-0.0	-0.0	238165.140625	9506.4833984375	-1320.2608642578125
0.1895	-0.0	-0.0	-0.0	-0.0	-0.0	-0.0	3.76047420501709	2.353823661804199	-775.6514892578125	-0.0	-0.0	-0.0	-0.0	-0.0	-0.0	239661.078125	9354.279296875	-1381.119384765625
0.19	-0.0	-0.0	-0.0	-0.0	-0.0	-0.0	4.3646087646484375	4.960138320922852	-778.957275390625	-0.0	-0.0	-0.0	-0.0	-0.0	-0.0	240854.109375	9611.8056640625	-1319.8284912109375
0.1905	-0.0	-0.0	-0.0	-0.0	-0.0	-0.0	4.807064056396484	5.865366458892822	-780.8735961914062	-0.0	-0.0	-0.0	-0.0	-0.0	-0.0	242213.109375	9791.21875	-1018.5007934570312
0.191	-0.0	-0.0	-0.0	-0.0	-0.0	-0.0	4.724845886230469	5.550324440002441	-781.4204711914062	-0.0	-0.0	-0.0	-0.0	-0.0	-0.0	242535.5	9915.984375	-889.8444213867188
0.1915	-0.0	-0.0	-0.0	-0.0	-0.0	-0.0	3.932442426681519	4.681031227111816	-781.9802856445312	-0.0	-0.0	-0.0	-0.0	-0.0	-0.0	242885.15625	10451.55859375	-854.3280029296875
0.192	-0.0	-0.0	-0.0	-0.0	-0.0	-0.0	2.395191192626953	4.346651554107666	-783.1822509765625	-0.0	-0.0	-0.0	-0.0	-0.0	-0.0	243158.875	10704.3212890625	-1194.76220703125
0.1925	-0.0	-0.0	-0.0	-0.0	-0.0	-0.0	1.335951328277588	4.060669422149658	-784.5435180664062	-0.0	-0.0	-0.0	-0.0	-0.0	-0.0	243448.359375	11244.9150390625	-1382.0401611328125
0.193	-0.0	-0.0	-0.0	-0.0	-0.0	-0.0	0.4130142331123352	4.446477890014648	-784.4236450195312	-0.0	-0.0	-0.0	-0.0	-0.0	-0.0	243712.125	11426.6640625	-1397.4105224609375
0.1935	-0.0	-0.0	-0.0	-0.0	-0.0	-0.0	0.2658259868621826	5.285593986511231	-784.302734375	-0.0	-0.0	-0.0	-0.0	-0.0	-0.0	243985.25	11547.419921875	-1307.771728515625
0.194	-0.0	-0.0	-0.0	-0.0	-0.0	-0.0	0.1024185270071029	5.3811869621276855	-785.4832763671875	-0.0	-0.0	-0.0	-0.0	-0.0	-0.0	244346.875	11843.8603515625	-1164.625244140625
